<?xml version="1.0" standalone="no"?><!DOCTYPE svg PUBLIC "-//W3C//DTD SVG 1.1//EN" "http://www.w3.org/Graphics/SVG/1.1/DTD/svg11.dtd"><svg t="1622624159743" class="icon" viewBox="0 0 1024 1024" version="1.1" xmlns="http://www.w3.org/2000/svg" p-id="10220" xmlns:xlink="http://www.w3.org/1999/xlink" width="48" height="48"><defs><style type="text/css"></style></defs><path d="M606.208 102.4a406.8352 406.8352 0 0 1 203.9808 121.088c-14.336 33.792-13.4656 73.8304 5.8368 108.1856a116.736 116.736 0 0 0 88.32 59.392c11.264 38.2464 17.2544 78.848 17.2544 120.9344 0 42.0864-5.9904 82.688-17.2032 121.0368a116.48 116.48 0 0 0-88.3712 59.2896 122.9312 122.9312 0 0 0-5.888 108.1856A406.6304 406.6304 0 0 1 606.208 921.6a115.7632 115.7632 0 0 0-94.208-48.9472c-38.6048 0-72.9088 19.2512-94.208 48.896a406.3744 406.3744 0 0 1-203.9808-121.0368c14.336-33.792 13.4656-73.8304-5.8368-108.1856a116.736 116.736 0 0 0-88.32-59.392A429.312 429.312 0 0 1 102.4 512c0-42.0864 5.9904-82.688 17.2032-121.0368a116.48 116.48 0 0 0 88.3712-59.2896c19.3024-34.3552 20.224-74.3936 5.888-108.1856A406.6304 406.6304 0 0 1 417.792 102.4c21.2992 29.696 55.552 48.9472 94.208 48.9472 37.6832 0 71.2192-18.3296 92.672-46.7968L606.208 102.4zM512 256a256 256 0 1 0 0 512 256 256 0 0 0 0-512z" fill="#5f1ad4" opacity=".4" p-id="10221"></path><path d="M512 512m-153.6 0a153.6 153.6 0 1 0 307.2 0 153.6 153.6 0 1 0-307.2 0Z" fill="#5f1ad4" p-id="10222"></path></svg>